<svg width="1200" height="700" xmlns="http://www.w3.org/2000/svg">
  <rect width="1200" height="700" fill="#f8fafc"/>
  
  <!-- Header -->
  <rect x="0" y="0" width="1200" height="80" fill="#1e40af"/>
  <text x="600" y="50" text-anchor="middle" fill="white" font-size="24" font-weight="bold">⌨️ Tastatur Helten</text>
  
  <!-- Game area -->
  <rect x="100" y="120" width="1000" height="200" fill="white" stroke="#e2e8f0" stroke-width="2" rx="8"/>
  <text x="600" y="220" text-anchor="middle" fill="#64748b" font-size="18">Skriv: "dansk skole"</text>
  
  <!-- Keyboard mockup -->
  <g transform="translate(200, 380)">
    <!-- Keyboard background -->
    <rect x="0" y="0" width="800" height="250" fill="#f1f5f9" stroke="#cbd5e1" stroke-width="2" rx="12"/>
    
    <!-- Key rows -->
    <g id="keys">
      <!-- Row 1 -->
      <rect x="20" y="20" width="60" height="50" fill="white" stroke="#94a3b8" stroke-width="1" rx="4"/>
      <rect x="90" y="20" width="60" height="50" fill="white" stroke="#94a3b8" stroke-width="1" rx="4"/>
      <rect x="160" y="20" width="60" height="50" fill="white" stroke="#94a3b8" stroke-width="1" rx="4"/>
      <rect x="230" y="20" width="60" height="50" fill="white" stroke="#94a3b8" stroke-width="1" rx="4"/>
      <rect x="300" y="20" width="60" height="50" fill="white" stroke="#94a3b8" stroke-width="1" rx="4"/>
      <rect x="370" y="20" width="60" height="50" fill="white" stroke="#94a3b8" stroke-width="1" rx="4"/>
      <rect x="440" y="20" width="60" height="50" fill="white" stroke="#94a3b8" stroke-width="1" rx="4"/>
      <rect x="510" y="20" width="60" height="50" fill="white" stroke="#94a3b8" stroke-width="1" rx="4"/>
      <rect x="580" y="20" width="60" height="50" fill="white" stroke="#94a3b8" stroke-width="1" rx="4"/>
      <rect x="650" y="20" width="60" height="50" fill="white" stroke="#94a3b8" stroke-width="1" rx="4"/>
      <rect x="720" y="20" width="60" height="50" fill="white" stroke="#94a3b8" stroke-width="1" rx="4"/>
      
      <!-- Row 2 -->
      <rect x="50" y="80" width="60" height="50" fill="white" stroke="#94a3b8" stroke-width="1" rx="4"/>
      <rect x="120" y="80" width="60" height="50" fill="white" stroke="#94a3b8" stroke-width="1" rx="4"/>
      <rect x="190" y="80" width="60" height="50" fill="white" stroke="#94a3b8" stroke-width="1" rx="4"/>
      <rect x="260" y="80" width="60" height="50" fill="white" stroke="#94a3b8" stroke-width="1" rx="4"/>
      <rect x="330" y="80" width="60" height="50" fill="white" stroke="#94a3b8" stroke-width="1" rx="4"/>
      <rect x="400" y="80" width="60" height="50" fill="white" stroke="#94a3b8" stroke-width="1" rx="4"/>
      <rect x="470" y="80" width="60" height="50" fill="white" stroke="#94a3b8" stroke-width="1" rx="4"/>
      <rect x="540" y="80" width="60" height="50" fill="white" stroke="#94a3b8" stroke-width="1" rx="4"/>
      <rect x="610" y="80" width="60" height="50" fill="white" stroke="#94a3b8" stroke-width="1" rx="4"/>
      <rect x="680" y="80" width="60" height="50" fill="white" stroke="#94a3b8" stroke-width="1" rx="4"/>
      
      <!-- Row 3 -->
      <rect x="80" y="140" width="60" height="50" fill="white" stroke="#94a3b8" stroke-width="1" rx="4"/>
      <rect x="150" y="140" width="60" height="50" fill="white" stroke="#94a3b8" stroke-width="1" rx="4"/>
      <rect x="220" y="140" width="60" height="50" fill="white" stroke="#94a3b8" stroke-width="1" rx="4"/>
      <rect x="290" y="140" width="60" height="50" fill="white" stroke="#94a3b8" stroke-width="1" rx="4"/>
      <rect x="360" y="140" width="60" height="50" fill="white" stroke="#94a3b8" stroke-width="1" rx="4"/>
      <rect x="430" y="140" width="60" height="50" fill="white" stroke="#94a3b8" stroke-width="1" rx="4"/>
      <rect x="500" y="140" width="60" height="50" fill="white" stroke="#94a3b8" stroke-width="1" rx="4"/>
      <rect x="570" y="140" width="60" height="50" fill="white" stroke="#94a3b8" stroke-width="1" rx="4"/>
      <rect x="640" y="140" width="60" height="50" fill="white" stroke="#94a3b8" stroke-width="1" rx="4"/>
      
      <!-- Space bar -->
      <rect x="200" y="200" width="400" height="50" fill="white" stroke="#94a3b8" stroke-width="1" rx="4"/>
    </g>
  </g>
  
  <!-- Score display -->
  <rect x="50" y="50" width="150" height="60" fill="#10b981" rx="8"/>
  <text x="125" y="85" text-anchor="middle" fill="white" font-size="18" font-weight="bold">Score: 245</text>
  
  <!-- Timer -->
  <rect x="1000" y="50" width="150" height="60" fill="#f59e0b" rx="8"/>
  <text x="1075" y="85" text-anchor="middle" fill="white" font-size="18" font-weight="bold">Tid: 1:23</text>
</svg>
